# File created by Blade
# Date/Time:  Wed Jan 21 16:02:01 2015
# Frame Rate: 120.000 fps
#------------------------------------------------------
:FULLY-SPECIFIED
:DEGREES
1650
root 21.933003 32.358835 -20.018269 -169.050038 5.015247 -179.398122
Spine -28.383910 7.707956 -30.478396
Head 14.157408 -16.704256 7.831149
LeftShoulder -13.541620 -33.342226 0.901974
LeftArm -34.737952 -6.932868 -44.974760
LeftForeArm 3.545162 -0.000000 20.736993
LeftHand -3.474441 -0.000000 5.795324
LeftHandThumb1 -26.253704 0.000000 33.147579
RightShoulder -9.761371 14.531264 -40.921852
RightArm 40.361943 53.711158 -7.809024
RightForeArm -36.871526 -0.000000 14.833951
RightHand 0.501446 0.000000 -33.997523
RightHandThumb1 -24.326973 -0.000000 -32.862282
LeftUpLeg 14.346275 0.936374 -15.692752
LeftLeg -2.285261 -0.000000 0.000000
LeftFoot -35.865916 18.749401 -16.781423
LeftToeBase 15.908679 -0.000000 -0.000000
RightUpLeg -16.686616 10.039513 25.578330
RightLeg -3.059152 -0.000000 0.000000
RightFoot -4.374977 -26.763426 -1.639255
RightToeBase 21.752647 -0.000000 -0.000000
1651
root 21.936468 32.356452 -20.017527 -169.035734 5.031255 -179.397086
Spine -28.367192 7.729146 -30.477440
Head 14.194003 -16.642017 7.801584
LeftShoulder -13.531280 -33.356613 0.891367
LeftArm -34.702148 -6.937460 -44.987326
LeftForeArm 3.524354 -0.000000 20.829448
LeftHand -3.345579 -0.000000 5.636609
LeftHandThumb1 -26.253704 0.000000 33.147579
RightShoulder -9.773908 14.572545 -40.947469
RightArm 40.490261 53.719522 -7.685097
RightForeArm -36.891770 -0.000000 14.848070
RightHand 0.411900 -0.000000 -34.029538
RightHandThumb1 -24.326973 -0.000000 -32.862282
LeftUpLeg 14.336280 0.931847 -15.696801
LeftLeg -2.296308 -0.000000 0.000000
LeftFoot -35.874965 18.778679 -16.785015
LeftToeBase 15.773306 -0.000000 -0.000000
RightUpLeg -16.700339 10.054561 25.589234
RightLeg -3.057051 -0.000000 0.000000
RightFoot -4.371286 -26.795244 -1.642196
RightToeBase 21.742506 -0.000000 -0.000000
1652
root 21.940899 32.354333 -20.016010 -169.019390 5.039784 -179.391158
Spine -28.346014 7.751704 -30.477879
Head 14.205598 -16.590262 7.794338
LeftShoulder -13.507904 -33.364642 0.897236
LeftArm -34.688503 -6.959043 -45.034426
LeftForeArm 3.578497 -0.000000 20.964693
LeftHand -3.511362 -0.000000 5.965672
LeftHandThumb1 -26.253704 0.000000 33.147579
RightShoulder -9.791258 14.626882 -40.962714
RightArm 40.730905 53.821750 -7.413117
RightForeArm -37.192427 -0.000000 14.906482
RightHand 0.220092 -0.000000 -33.989551
RightHandThumb1 -24.326973 -0.000000 -32.862282
LeftUpLeg 14.325674 0.915587 -15.694775
LeftLeg -2.311762 -0.000000 0.000000
LeftFoot -35.911292 18.815743 -16.773621
LeftToeBase 15.876899 -0.000000 -0.000000
RightUpLeg -16.697468 10.124555 25.582062
RightLeg -3.091752 -0.000000 0.000000
RightFoot -4.333388 -26.844290 -1.623010
RightToeBase 21.674667 -0.000000 -0.000000
1653
root 21.944014 32.352409 -20.015563 -169.005595 5.055138 -179.395692
Spine -28.325694 7.768007 -30.483135
Head 14.227027 -16.500503 7.793789
LeftShoulder -13.493090 -33.418314 0.885096
LeftArm -34.690304 -6.937579 -45.027294
LeftForeArm 3.604247 -0.000000 21.050531
LeftHand -3.537067 0.000000 6.033408
LeftHandThumb1 -26.253704 0.000000 33.147579
RightShoulder -9.830596 14.679566 -41.004264
RightArm 40.838438 53.804474 -7.308366
RightForeArm -37.169685 -0.000000 14.903206
RightHand 0.318832 -0.000000 -34.039855
RightHandThumb1 -24.326973 -0.000000 -32.862282
LeftUpLeg 14.316389 0.910595 -15.701711
LeftLeg -2.324062 -0.000000 0.000000
LeftFoot -35.918588 18.837312 -16.765417
LeftToeBase 15.846455 -0.000000 -0.000000
RightUpLeg -16.708163 10.128857 25.584773
RightLeg -3.085659 -0.000000 0.000000
RightFoot -4.348336 -26.847099 -1.638898
RightToeBase 21.676748 -0.000000 -0.000000
1654
root 21.946613 32.350345 -20.014586 -168.996655 5.072440 -179.390435
Spine -28.307170 7.791150 -30.475161
Head 14.262702 -16.430878 7.796846
LeftShoulder -13.478976 -33.441286 0.869072
LeftArm -34.671645 -6.961014 -45.019522
LeftForeArm 3.637553 -0.000000 21.125947
LeftHand -3.549476 -0.000000 6.035756
LeftHandThumb1 -26.253704 0.000000 33.147579
RightShoulder -9.848304 14.706601 -41.015138
RightArm 40.927141 53.796085 -7.262187
RightForeArm -37.025159 -0.000000 14.850299
RightHand 0.472534 -0.000000 -34.159659
RightHandThumb1 -24.326973 -0.000000 -32.862282
LeftUpLeg 14.315222 0.906569 -15.703297
LeftLeg -2.337300 -0.000000 0.000000
LeftFoot -35.942839 18.817132 -16.745548
LeftToeBase 16.092880 -0.000000 -0.000000
RightUpLeg -16.713637 10.133271 25.598762
RightLeg -3.081362 -0.000000 0.000000
RightFoot -4.349820 -26.829897 -1.617845
RightToeBase 21.696420 -0.000000 -0.000000
1655
root 21.948177 32.348094 -20.014470 -168.997657 5.084646 -179.392293
Spine -28.277102 7.811529 -30.470032
Head 14.290290 -16.386432 7.797789
LeftShoulder -13.462403 -33.448310 0.844124
LeftArm -34.647706 -6.971862 -45.013674
LeftForeArm 3.721409 0.000000 21.207360
LeftHand -3.570231 -0.000000 5.946154
LeftHandThumb1 -26.253704 0.000000 33.147579
RightShoulder -9.836094 14.714243 -40.992384
RightArm 40.980215 53.821233 -7.283464
RightForeArm -36.977106 -0.000000 14.794441
RightHand 0.479689 0.000000 -34.458358
RightHandThumb1 -24.326973 -0.000000 -32.862282
LeftUpLeg 14.324809 0.899752 -15.709116
LeftLeg -2.359740 -0.000000 0.000000
LeftFoot -35.959626 18.870303 -16.774659
LeftToeBase 15.828350 -0.000000 -0.000000
RightUpLeg -16.709469 10.119058 25.609684
RightLeg -3.077373 -0.000000 0.000000
RightFoot -4.363710 -26.826252 -1.633529
RightToeBase 21.716037 -0.000000 -0.000000
1656
root 21.950850 32.346350 -20.014533 -168.990575 5.095413 -179.389441
Spine -28.260989 7.821618 -30.466579
Head 14.298851 -16.369838 7.814329
LeftShoulder -13.448077 -33.459659 0.825144
LeftArm -34.616442 -6.956616 -45.003731
LeftForeArm 3.749097 0.000000 21.232190
LeftHand -3.546158 -0.000000 5.800161
LeftHandThumb1 -26.253704 0.000000 33.147579
RightShoulder -9.823424 14.689779 -40.953307
RightArm 40.996035 53.876077 -7.311357
RightForeArm -36.906430 -0.000000 14.851235
RightHand 0.428185 -0.000000 -34.221943
RightHandThumb1 -24.326973 -0.000000 -32.862282
LeftUpLeg 14.326085 0.888478 -15.709820
LeftLeg -2.373768 -0.000000 0.000000
LeftFoot -35.963786 18.887616 -16.747776
LeftToeBase 15.839801 -0.000000 -0.000000
RightUpLeg -16.716167 10.084428 25.628822
RightLeg -3.056103 -0.000000 0.000000
RightFoot -4.383440 -26.766924 -1.661767
RightToeBase 21.697513 -0.000000 -0.000000
1657
root 21.952750 32.345043 -20.014678 -168.981486 5.109386 -179.387954
Spine -28.252995 7.834472 -30.463129
Head 14.327376 -16.345276 7.826844
LeftShoulder -13.443760 -33.453168 0.810392
LeftArm -34.581100 -6.958522 -45.003261
LeftForeArm 3.808379 0.000000 21.285409
LeftHand -3.551594 -0.000000 5.765336
LeftHandThumb1 -26.253704 0.000000 33.147579
RightShoulder -9.800182 14.688280 -40.922248
RightArm 41.009059 53.913330 -7.335772
RightForeArm -37.040705 0.000000 14.914119
RightHand 0.244191 -0.000000 -34.083327
RightHandThumb1 -24.326973 -0.000000 -32.862282
LeftUpLeg 14.328357 0.881101 -15.712471
LeftLeg -2.394245 -0.000000 0.000000
LeftFoot -35.953059 18.907695 -16.735761
LeftToeBase 15.804704 -0.000000 -0.000000
RightUpLeg -16.719091 10.093685 25.637442
RightLeg -3.056729 -0.000000 0.000000
RightFoot -4.388115 -26.778874 -1.661683
RightToeBase 21.754544 -0.000000 -0.000000
1658
root 21.953810 32.344155 -20.014812 -168.971341 5.118386 -179.387555
Spine -28.245452 7.841664 -30.455005
Head 14.372984 -16.280013 7.852459
LeftShoulder -13.433533 -33.462116 0.783301
LeftArm -34.549024 -6.932355 -44.997184
LeftForeArm 3.803209 -0.000000 21.296370
LeftHand -3.569450 -0.000000 5.804691
LeftHandThumb1 -26.253704 0.000000 33.147579
RightShoulder -9.811170 14.670035 -40.909032
RightArm 41.002831 53.886172 -7.419032
RightForeArm -36.972823 -0.000000 14.883300
RightHand 0.296333 -0.000000 -34.145167
RightHandThumb1 -24.326973 -0.000000 -32.862282
LeftUpLeg 14.329960 0.866463 -15.716718
LeftLeg -2.419111 -0.000000 0.000000
LeftFoot -35.966608 18.937863 -16.752702
LeftToeBase 15.800148 -0.000000 -0.000000
RightUpLeg -16.727966 10.097969 25.640341
RightLeg -3.050739 -0.000000 0.000000
RightFoot -4.397311 -26.774487 -1.642581
RightToeBase 21.762531 -0.000000 -0.000000
1659
root 21.953988 32.342800 -20.015355 -168.965616 5.123579 -179.392010
Spine -28.233271 7.846067 -30.447748
Head 14.416944 -16.241682 7.860286
LeftShoulder -13.419421 -33.468827 0.755787
LeftArm -34.531403 -6.905118 -44.993147
LeftForeArm 3.843196 0.000000 21.320360
LeftHand -3.585878 0.000000 5.830521
LeftHandThumb1 -26.253704 0.000000 33.147579
RightShoulder -9.800335 14.662553 -40.895812
RightArm 41.037490 53.929879 -7.399535
RightForeArm -37.073468 0.000000 14.923276
RightHand 0.267829 0.000000 -34.165940
RightHandThumb1 -24.326973 -0.000000 -32.862282
LeftUpLeg 14.340490 0.839177 -15.728912
LeftLeg -2.444042 -0.000000 0.000000
LeftFoot -35.958381 18.920924 -16.740058
LeftToeBase 16.022782 -0.000000 -0.000000
RightUpLeg -16.733973 10.111129 25.636704
RightLeg -3.050326 -0.000000 0.000000
RightFoot -4.408862 -26.813488 -1.682335
RightToeBase 21.812496 -0.000000 -0.000000
